HIERARCHY
ROOT Hips
{
  OFFSET 0 0 0
  CHANNELS 6 Xposition Yposition Zposition Zrotation Yrotation Xrotation
  JOINT LeftThigh
  {
    OFFSET 8.409438 0 -5.917753
    CHANNELS 3 Zrotation Yrotation Xrotation
    JOINT LeftLeg
    {
      OFFSET 0 0 -42.358652
      CHANNELS 3 Zrotation Yrotation Xrotation
      JOINT LeftFoot
      {
        OFFSET 0 0 -39.357303
        CHANNELS 3 Zrotation Yrotation Xrotation
      }
    }
  }
  JOINT RightThigh
  {
    OFFSET -8.409438 0 -5.917753
    CHANNELS 3 Zrotation Yrotation Xrotation
    JOINT RightLeg
    {
      OFFSET 0 0 -42.358652
      CHANNELS 3 Zrotation Yrotation Xrotation
      JOINT RightFoot
      {
        OFFSET 0 0 -39.357303
        CHANNELS 3 Zrotation Yrotation Xrotation
      }
    }
  }
  JOINT SpineLow
  {
    OFFSET 0 0 4.719101
    CHANNELS 3 Zrotation Yrotation Xrotation
    JOINT SpineMid
    {
      OFFSET 0 0 12.899191
      CHANNELS 3 Zrotation Yrotation Xrotation
      JOINT Chest
      {
        OFFSET 0 0 12.899191
        CHANNELS 3 Zrotation Yrotation Xrotation
        JOINT LeftShoulder
        {
          OFFSET 7.550562 1.41573 9.438202
          CHANNELS 3 Zrotation Yrotation Xrotation
          JOINT LeftArm
          {
            OFFSET 9.155056 0 4.247191
            CHANNELS 3 Zrotation Yrotation Xrotation
            JOINT LeftForearm
            {
              OFFSET 0 0 25.771955
              CHANNELS 3 Zrotation Yrotation Xrotation
              JOINT LeftHand
              {
                OFFSET 0 0 25.197169
                CHANNELS 3 Zrotation Yrotation Xrotation
              }
            }
          }
        }
        JOINT RightShoulder
        {
          OFFSET -7.550562 1.41573 9.438202
          CHANNELS 3 Zrotation Yrotation Xrotation
          JOINT RightArm
          {
            OFFSET -9.155056 0 4.247191
            CHANNELS 3 Zrotation Yrotation Xrotation
            JOINT RightForearm
            {
              OFFSET 0 0 -25.771955
              CHANNELS 3 Zrotation Yrotation Xrotation
              JOINT RightHand
              {
                OFFSET 0 0 -25.197169
                CHANNELS 3 Zrotation Yrotation Xrotation
              }
            }
          }
        }
        JOINT Neck
        {
          OFFSET 0 0 15.101124
          CHANNELS 3 Zrotation Yrotation Xrotation
          JOINT Head
          {
            OFFSET 0 0 11.325843
            CHANNELS 3 Zrotation Yrotation Xrotation
            End Site
            {
              OFFSET 0 0 14.157303
            }
          }
        }
      }
    }
  }
}
MOTION
Frames: 14
Frame Time: 0.0
0.0  101.685394  0.0  0.808006  27.878937  -94.286319  9.820584  -25.927996  11.649796  10.115988  4.006386  42.36855  2.825234  3.845915  -1.65374  -22.157134  2.326018  -42.834233  7.752186  5.644876  60.753467  4.726043  7.718769  2.746869  -3.193083  0.444888  1.958728  -8.686663  1.470918  5.285377  -8.686664  1.470918  5.285377  -1.539452  21.175788  10.562671  150.062506  27.927813  -169.189747  -45.509224  -18.045026  98.564494  81.534477  -8.434454  7.073057  13.494773  -7.09842  15.598687  -4.201379  79.156756  -56.119817  -22.189762  -1.637411  -81.283827  67.448018  -5.117579  26.224468  -5.177122  -1.788988  -4.519019  -3.896009  -1.303657  -3.404436  
0.0  101.685394  0.0  0.871833  27.156031  -94.280605  9.636922  -25.723068  11.662425  10.606423  4.618647  42.757691  3.264911  3.802697  -1.917476  -21.604382  2.428529  -43.149278  7.582687  5.530748  60.715968  4.94598  7.680765  2.902742  -3.039389  0.468356  2.024304  -8.263319  1.53089  5.465268  -8.26332  1.53089  5.465268  -1.558061  21.139276  10.231959  149.948798  28.171535  -169.402568  -45.848793  -17.756347  98.847437  81.761217  -8.518291  6.237638  13.481683  -7.065192  15.678853  -4.612895  78.857829  -56.783168  -22.186959  -1.546059  -81.013631  67.46668  -5.162294  26.271031  -5.394819  -1.972039  -4.739236  -4.061301  -1.437432  -3.571819  
0.0  101.685394  0.0  0.941602  26.256501  -94.274071  9.691106  -25.495544  11.493844  11.000944  5.189264  43.28303  3.813959  3.813098  -2.065143  -20.889025  2.435882  -43.478201  7.53178  5.411601  60.688959  5.068822  7.62736  3.069421  -2.86972  0.504275  2.098177  -7.794988  1.623601  5.667121  -7.794989  1.623601  5.667121  -1.635087  21.013357  9.756222  149.942949  28.46687  -169.533883  -46.30089  -17.227735  99.17362  81.944555  -8.558903  5.525817  13.431964  -7.055683  15.678148  -4.283203  78.545765  -56.805613  -22.173362  -1.338535  -80.696595  67.461095  -5.207881  26.368452  -5.610848  -2.212803  -4.984299  -4.225999  -1.614135  -3.758458  
0.0  101.685394  0.0  1.036072  25.278604  -94.245747  10.1178  -25.266393  11.236253  11.217501  5.587644  43.777247  4.206647  3.860596  -2.128041  -20.092515  2.50705  -43.870154  7.482868  5.251608  60.739716  5.18446  7.54686  3.205896  -2.69202  0.553126  2.169025  -7.303519  1.749512  5.860084  -7.303519  1.749512  5.860084  -1.693232  20.837774  9.282395  150.008822  28.851945  -169.566634  -46.668129  -16.602246  99.516463  82.084827  -8.615445  4.836486  13.283734  -7.063098  15.637272  -3.162253  78.163841  -56.118923  -22.085609  -1.101719  -80.437506  67.435915  -5.294203  26.511951  -5.831389  -2.506316  -5.220979  -4.394645  -1.830282  -3.939461  
0.0  101.685394  0.0  1.13986  24.341223  -94.201488  10.600661  -24.96622  10.765398  11.559192  5.634051  44.491272  4.284297  3.937192  -2.18331  -19.350713  2.636409  -44.242283  7.621421  4.92126  60.873456  4.989719  7.35539  3.201444  -2.530326  0.608487  2.229711  -6.855257  1.892552  6.024888  -6.855257  1.892552  6.024888  -1.79014  20.686898  8.896765  150.288759  29.37379  -169.404776  -46.927246  -16.148728  99.826558  82.148715  -8.704634  4.188578  13.115016  -7.062088  15.621016  -1.536392  77.683252  -54.941816  -21.959042  -0.71983  -80.208704  67.241202  -5.369955  26.667296  -6.075686  -2.819395  -5.436347  -4.581368  -2.060945  -4.104964  
0.0  101.685394  0.0  1.234103  23.515149  -94.167444  11.315159  -24.80963  10.275494  11.764866  5.557449  45.219582  4.082856  4.015514  -2.25217  -18.819164  2.698247  -44.571072  7.63159  4.714561  60.798175  5.148958  7.230356  3.328228  -2.400027  0.676498  2.27968  -6.491719  2.07117  6.15895  -6.49172  2.07117  6.15895  -1.806388  20.520674  8.712549  150.786576  30.064847  -168.964157  -47.017194  -16.027151  100.09277  82.184002  -8.788314  3.505387  12.993085  -7.097625  15.656632  0.355927  77.120201  -53.492806  -21.63267  -0.496729  -80.179168  67.034564  -5.485125  26.931532  -6.253895  -3.156778  -5.59659  -4.718633  -2.310843  -4.229234  
0.0  101.685394  0.0  1.258867  22.798986  -94.174414  12.066973  -24.756973  9.709049  11.831591  5.397547  45.948177  3.606672  4.0572  -2.358459  -18.416786  2.776959  -44.752343  7.623371  4.424267  60.585191  5.158442  7.042007  3.419741  -2.301537  0.742113  2.323691  -6.215241  2.245171  6.276561  -6.215241  2.245171  6.27656  -1.909538  20.370645  8.639331  151.592977  30.893054  -168.258459  -46.995534  -16.31351  100.299871  82.288637  -8.874192  2.660534  12.88862  -7.141382  15.724053  2.522313  76.53335  -51.807017  -21.727287  0.337961  -79.762189  66.487071  -5.405704  26.726143  -6.451741  -3.495418  -5.734082  -4.870638  -2.561655  -4.336737  
0.0  101.685394  0.0  1.202696  22.170957  -94.226359  12.993187  -24.853237  9.138071  11.712286  5.245311  46.638096  3.023534  4.05057  -2.42239  -18.190074  2.721708  -44.862272  7.719904  4.057941  60.290818  5.313662  6.877572  3.58147  -2.219283  0.79982  2.376382  -5.983286  2.39958  6.418507  -5.983286  2.39958  6.418507  -1.987675  20.28802  8.605992  152.46246  31.90425  -167.404649  -46.889877  -16.973943  100.441708  82.51157  -8.955978  1.583188  12.832513  -7.180755  15.800984  4.526166  75.943812  -50.263119  -21.339751  0.566863  -79.855134  66.29885  -5.45793  26.87361  -6.549468  -3.789325  -5.884933  -4.947383  -2.779634  -4.453353  
0.0  101.685394  0.0  0.997442  21.470551  -94.381607  14.141186  -25.099715  8.576787  11.238736  5.179746  47.120472  2.899764  4.140698  -2.207777  -17.997306  2.619265  -44.898105  7.856032  3.473813  60.023605  5.324097  6.71985  3.700642  -2.116173  0.848575  2.445697  -5.694293  2.528573  6.607882  -5.694293  2.528573  6.607882  -2.723993  20.114698  8.370891  153.994653  32.961416  -166.337717  -46.712202  -17.852499  100.527462  82.871113  -8.943203  0.214449  12.644169  -7.293495  15.795741  6.845704  75.432054  -48.496636  -21.676301  1.624766  -79.28527  65.917855  -5.259747  26.485939  -6.845612  -4.118943  -6.081517  -5.173645  -3.021922  -4.606059  
0.0  101.685394  0.0  0.750823  21.017454  -94.457056  15.139071  -25.36309  7.919258  10.65952  5.157655  47.576546  2.739915  4.163756  -2.164998  -17.843315  2.435917  -44.969767  7.830967  3.03886  59.708669  5.368232  6.591527  3.890557  -2.042657  0.890562  2.500978  -5.487132  2.640367  6.758634  -5.487132  2.640367  6.758634  -3.111406  19.975375  8.2088  155.132408  34.151809  -165.262044  -46.521504  -18.82703  100.617449  83.333478  -8.785652  -1.35206  12.457295  -7.441764  15.773531  9.223547  74.978992  -46.634088  -21.463303  1.864192  -79.328601  65.850819  -5.165464  26.475758  -6.99478  -4.416867  -6.242079  -5.289321  -3.242151  -4.730608  
0.0  101.685394  0.0  0.383467  20.539381  -94.58455  16.197434  -25.750225  7.342356  9.962785  5.197684  47.889364  2.862909  4.255504  -1.998886  -17.665153  2.175307  -45.04267  7.74428  2.598861  59.466659  5.414003  6.444012  4.058384  -1.987576  0.910298  2.54323  -5.332929  2.69199  6.874926  -5.332928  2.69199  6.874926  -3.702009  19.834994  8.028032  156.688792  35.311198  -163.919642  -46.349964  -19.760264  100.701242  83.819364  -8.51093  -2.995193  12.398514  -7.565616  15.836113  11.709916  74.636894  -44.678203  -21.812173  2.720212  -78.837543  65.425904  -4.850483  25.886692  -7.340973  -4.662328  -6.400407  -5.552322  -3.420941  -4.854589  
0.0  101.685394  0.0  0.007834  20.261727  -94.576908  17.068558  -26.115909  6.756448  9.227942  5.313985  47.963106  3.050069  4.288174  -1.897382  -17.613342  1.826951  -45.237159  7.533046  2.417462  59.230165  5.645388  6.289663  4.259725  -1.993979  0.881314  2.559608  -5.352631  2.614889  6.921599  -5.352631  2.614889  6.921599  -3.839969  20.015859  7.865993  157.970308  36.571839  -162.459317  -46.173959  -20.564399  100.773636  84.192565  -8.164155  -4.601165  12.421052  -7.448159  15.919635  14.483412  74.414574  -42.462175  -21.77996  2.942718  -78.781919  65.297745  -4.681784  25.966328  -7.338696  -4.720648  -6.518233  -5.552092  -3.463322  -4.943543  
0.0  101.685394  0.0  -0.390725  19.750379  -94.625911  17.92944  -26.429205  6.383892  8.721806  5.349575  47.867119  3.367602  4.307314  -1.673416  -17.377703  1.434129  -45.391344  7.270227  2.3675  59.014307  5.974656  6.154659  4.470466  -1.983389  0.848624  2.583304  -5.32604  2.526495  6.989257  -5.32604  2.526495  6.989257  -4.236904  20.22799  7.553799  159.68083  37.836884  -160.771311  -45.992873  -21.19777  100.841098  84.352105  -7.8713  -6.070645  12.626572  -7.369475  15.987397  17.270023  74.271134  -40.136184  -21.801641  3.197061  -78.647867  65.018796  -4.432399  26.131385  -7.527211  -4.745974  -6.667207  -5.694849  -3.478531  -5.057016  
0.0  101.685394  0.0  -0.705894  19.354951  -94.593558  18.432416  -26.638401  6.15804  8.480252  5.373614  47.619596  3.585739  4.235134  -1.517701  -17.209389  1.039136  -45.620929  6.997989  2.456293  58.813308  6.343021  6.029496  4.699566  -1.982299  0.819722  2.601965  -5.325275  2.449021  7.042473  -5.325275  2.449021  7.042474  -4.435223  20.46573  7.264053  161.147568  39.16855  -158.955944  -45.827466  -21.672501  100.948618  84.303667  -7.691425  -7.331809  12.578048  -7.26793  15.988903  20.604524  74.145689  -37.400422  -21.765137  3.324827  -78.57603  64.7014  -4.182466  26.486999  -7.498699  -4.742077  -6.7567  -5.674154  -3.474828  -5.123837  
